Patient4_TMGait_0pt6_01_left_31_EMG.mot
version=1
nRows=20
nColumns=33
inDegrees=no
endheader
time	1LAddLong	2LGlutMax	3LGlutMed	4LIliopsoas	5LSemiMemb	6LBicFemLong	7LRecFem	8LVastMed	9LVastLat	10LGasMed	11LTibAnt	12lTibPost	13LPeroneusLong	14LSol	15LExtDigLong	16LFlexDigLong	17RAddLong	18RGlutMax	19RGlutMed	20RIliopsoas	21RSemiMemb	22RBicFemLong	23RRecFem	24RVastMed	25RVastLat	26RGasMed	27RTibAnt	28RTibPost	29RPeroneusLong	30RSol	31RExtDigLong	32RFlexDigLong
38.082	0.013275	0.61111	0.062408	0.00351	0.02533	-0.20645	0.77759	0.02182	-0.23086	0.075226	0.067596	0.089264	0.61737	-0.54688	0.058136	0.14069	-0.073853	-0.10849	-0.2298	0.04425	0.08316	-0.24399	0.53497	0.089111	-0.030975	-0.009155	-0.062561	-0.001984	-0.16922	-0.013885	-0.003662	-0.009918
38.083	0.01358	0.53055	0.032654	0.011749	-0.006409	0.18158	0.80658	0.022736	-0.22553	-0.10559	0.028381	0.002136	0.77026	0.090332	0.06424	0.058441	-0.065308	-0.15091	-0.15884	0.043488	0.075073	-0.23895	0.48996	0.12268	-0.018005	-0.001831	-0.029755	-0.009613	-0.18921	-0.048981	-0.003052	-0.002136
38.084	0.005493	0.44571	-0.080872	0.016479	-0.055847	0.31525	0.80597	0.016785	-0.18066	-0.13138	-0.013428	-0.06012	-0.20142	0.18799	-0.059814	0.018463	-0.081635	-0.17197	-0.2948	0.027466	0.066376	-0.14297	0.46173	0.15045	-0.00885	0.000916	0.23758	-0.007782	-0.16098	-0.085754	-0.000916	0.004578
38.085	0.00946	0.4483	-0.099945	0.00351	-0.087128	0.3186	0.69244	0.021515	-0.089874	-0.074768	0.004883	0.030518	-1.1702	-0.14984	-0.21515	0.01709	-0.064087	-0.20691	-0.31097	0.03418	0.041199	-0.04364	0.40176	0.15793	0.018005	0.009003	0.25757	-0.00824	-0.10056	-0.093842	-0.003052	0.002747
38.086	0.000153	0.49911	-0.13382	0.016022	-0.077362	0.40207	0.59586	0.021362	-0.078583	-0.050659	0.048828	0.042419	-0.48141	-0.074158	-0.16083	0.012665	-0.051575	-0.1915	-0.33127	0.068512	-0.042419	-0.10757	0.39459	0.093536	0.011749	0.010986	0.15045	-0.007629	0.045929	-0.12894	-0.00824	-0.005951
38.087	0.014648	0.46188	0.088959	0.008545	0.015564	0.44113	0.50751	0.019684	-0.059814	-0.14099	0.069122	0.007629	0.31097	0.046234	-0.073242	0.052795	0.015564	-0.23972	-0.27603	0.081024	-0.083008	-0.16617	0.39978	0.046844	0.023499	0.006409	-0.25528	-0.003967	0.0914	-0.09964	-0.003052	-0.006561
38.088	-0.032043	0.47134	0.20645	0.035095	0.031891	0.42831	0.40955	0.016785	-0.084534	-0.16296	0.039825	-0.003357	0.18417	0.04715	0.029449	0.032959	-0.001221	-0.19028	-0.13779	0.047302	-0.10254	-0.2002	0.41733	0.01236	0.013428	-0.000305	-0.21133	-0.007324	0.18494	0.06485	-0.001678	0.001373
38.089	0.001068	0.44922	0.060577	0.036926	-0.033875	0.25635	0.29083	0.018158	-0.13473	-0.083618	0.023499	-0.006409	-0.081329	-0.12604	-0.052338	0.036163	-0.014954	-0.28625	-0.3389	0.07431	-0.082703	-0.19333	0.46341	0.031891	-0.011902	-0.002441	0.24307	-0.008392	0.13168	0.068665	-0.006256	-0.001221
38.09	0.038605	0.48416	0.10117	-0.010834	-0.066833	0.10071	0.20371	0.022278	-0.096893	-0.067902	0.002594	0.026703	-0.2121	-0.014191	-0.12665	0.045013	-0.024567	-0.33783	-0.38422	0.03067	-0.079803	-0.2243	0.4892	0.060425	-0.019836	-0.001526	0.68893	-0.005035	0.058594	0.026245	-0.007324	-0.003967
38.091	0.029755	0.53528	0.072174	-0.010986	-0.039825	-0.057526	0.13443	0.027618	-0.035553	-0.14877	-0.050964	0.017853	0.18829	0.23636	-0.10925	0.050049	0.029602	-0.47791	-0.55985	-0.016937	-0.071259	-0.23987	0.50369	0.020905	-0.006256	-0.001373	0.55115	-0.010834	0.03067	0.028992	-0.003052	-0.000458
38.092	0.013275	0.58853	-0.009155	0.020905	-0.065155	0.003204	0.060425	0.032349	0.021973	-0.18967	-0.074768	0.049591	0.04425	0.26688	-0.021667	0.050201	0.077667	-0.59036	-0.46783	-0.019684	-0.058594	-0.19943	0.51849	0.067596	-0.024261	-0.000305	-0.063934	-0.001831	0.041809	0.028534	-0.002441	-0.013428
38.093	0.002747	0.68603	0.035095	0.00946	-0.050964	-0.013275	-0.050812	0.037689	0.14679	-0.11353	-0.039368	0.041809	-0.37354	0.092926	-0.007172	0.037994	0.075226	-0.75638	-0.45181	0.032806	0.028687	-0.2179	0.53268	0.012054	-0.029449	0.006104	-0.6221	-0.00412	0.10712	-0.031433	-0.003815	-0.008392
38.094	0.02533	0.77652	0.14053	0.003357	-0.081024	-0.44342	-0.21896	0.022278	0.13199	-0.095367	-0.034485	0.051727	0.16251	-0.007935	-0.012512	0.041962	0.076599	-0.81619	-0.41473	0.02533	0.070953	-0.26474	0.5574	-0.099792	-0.045013	0.00351	-0.81924	-0.002289	0.11169	-0.068054	0.006866	-0.012207
38.095	0.035706	0.82657	0.17059	-0.003052	-0.092163	-0.69107	-0.24063	0.022583	-0.003357	-0.096436	-0.03952	0.05722	0.39627	-0.17395	-0.003967	0.037231	0.074615	-0.849	-0.28351	-0.12878	0.072632	-0.21973	0.53589	-0.093994	-0.043335	0.000916	-0.33661	-0.003967	0.086823	-0.088959	-0.001526	-0.019684
38.096	0.04303	0.84839	0.12726	0.000153	0.046844	-0.95642	-0.24262	0.007629	-0.10361	-0.08728	-0.021057	0.058594	-0.30563	-0.168	-0.005798	0.022278	0.035706	-0.82779	-0.25314	-0.24597	0.039825	-0.093384	0.56686	-0.096741	-0.034332	-0.002441	-0.13733	-0.001831	0.1059	-0.05661	-0.006256	-0.011444
38.097	0.030212	0.89264	0.12253	0.001984	0.048981	-0.9816	-0.22278	-0.002747	-0.12329	-0.11032	0.023193	0.059967	-0.5249	0.000305	-0.027466	0.025635	-0.016022	-0.79025	-0.32638	-0.26169	-0.020447	-0.11566	0.51712	-0.18188	-0.024872	-0.00061	-0.024109	-0.00473	0.00473	-0.00824	-0.004272	-0.014191
38.098	0.036774	0.93658	0.12589	-0.006561	-0.027771	-0.65262	-0.23239	-0.009613	-0.10971	-0.095367	0.058136	0.057373	-0.35523	-0.079193	-0.15243	0.022583	-0.059357	-0.64606	-0.24567	-0.23392	-0.090179	-0.16159	0.50049	-0.17288	-0.024261	-0.00351	-0.18677	-0.003357	-0.055237	0.040436	-0.007629	-0.02243
38.099	0.056915	0.94437	0.14343	-0.012207	-0.1178	-0.28153	-0.2356	0.005188	-0.084839	-0.048676	-0.019226	0.06546	-0.2063	-0.14755	-0.11414	0.002136	-0.060272	-0.56686	-0.22568	-0.036163	-0.10407	-0.090179	0.48752	-0.19348	-0.019531	-0.001221	-0.41504	-0.00061	-0.074158	-0.025482	-0.007019	-0.014038
38.1	0.03006	0.91156	0.14526	-0.005493	-0.090942	0.022583	-0.2829	0.009918	-0.037842	0.095062	-0.028992	0.058594	0.059509	0.039368	0.06958	-0.007477	-0.10407	-0.50476	-0.15533	0.12451	-0.10178	-0.010223	0.49255	-0.1564	-0.003662	0.004425	-0.32883	-0.00351	-0.030212	-0.078278	-0.007477	-0.018158
38.101	0.019989	0.78232	-0.048676	-0.000305	0.040131	0.1149	-0.35599	0.005188	-0.002594	0.15656	0.011902	0.055695	-0.059204	0.10376	0.072174	0.11429	-0.081482	-0.38406	-0.11185	0.15595	-0.11154	0.061646	0.50079	-0.026398	0.001831	0.006866	0.30121	-0.006561	-0.018311	-0.099335	-0.006409	-0.010071
